<?xml version="1.0" encoding="UTF-8" standalone="no"?>
<svg
   xmlns:dc="http://purl.org/dc/elements/1.1/"
   xmlns:cc="http://creativecommons.org/ns#"
   xmlns:rdf="http://www.w3.org/1999/02/22-rdf-syntax-ns#"
   xmlns:svg="http://www.w3.org/2000/svg"
   xmlns="http://www.w3.org/2000/svg"
   xmlns:sodipodi="http://sodipodi.sourceforge.net/DTD/sodipodi-0.dtd"
   xmlns:inkscape="http://www.inkscape.org/namespaces/inkscape"
   style="isolation:isolate"
   viewBox="0 0 687 192"
   width="916"
   height="256"
   version="1.1"
   id="svg103"
   sodipodi:docname="triduum-logo-g-w.svg"
   inkscape:version="0.92.4 (unknown)">
  <metadata
     id="metadata107">
    <rdf:RDF>
      <cc:Work
         rdf:about="">
        <dc:format>image/svg+xml</dc:format>
        <dc:type
           rdf:resource="http://purl.org/dc/dcmitype/StillImage" />
        <dc:title />
      </cc:Work>
    </rdf:RDF>
  </metadata>
  <sodipodi:namedview
     pagecolor="#ffffff"
     bordercolor="#666666"
     borderopacity="1"
     objecttolerance="10"
     gridtolerance="10"
     guidetolerance="10"
     inkscape:pageopacity="0"
     inkscape:pageshadow="2"
     inkscape:window-width="1327"
     inkscape:window-height="713"
     id="namedview105"
     showgrid="false"
     inkscape:zoom="1.3045852"
     inkscape:cx="458"
     inkscape:cy="128"
     inkscape:window-x="1405"
     inkscape:window-y="27"
     inkscape:window-maximized="1"
     inkscape:current-layer="g101" />
  <defs
     id="defs91">
    <clipPath
       id="a">
      <path
         d="M0 0h687v192H0z"
         id="path88" />
    </clipPath>
  </defs>
  <g
     clip-path="url(#a)"
     id="g101">
    <path
       d="M10 22.551c0-1.802.643-3.346 1.931-4.635 1.286-1.287 2.799-1.931 4.538-1.931 1.801 0 3.362.626 4.682 1.878 1.32 1.251 1.98 2.807 1.98 4.665v22.036h42.577c1.802 0 3.346.648 4.636 1.945 1.286 1.299 1.93 2.853 1.93 4.67 0 1.687-.628 3.147-1.882 4.378-1.256 1.232-2.818 1.848-4.684 1.848H23.131v34.661c0 4.698.883 9.075 2.655 13.13 1.769 4.055 4.2 7.58 7.29 10.573 3.088 2.992 6.709 5.343 10.862 7.048 4.151 1.705 8.639 2.557 13.468 2.557 4.248 0 8.206-.642 11.875-1.93 3.669-1.287 7.144-3.378 10.428-6.275a14.072 14.072 0 0 1 2.219-1.497c.773-.419 1.705-.627 2.801-.627 1.479 0 2.8.595 3.958 1.785 1.158 1.192 1.739 2.623 1.739 4.296 0 .966-.21 1.931-.629 2.897a7.308 7.308 0 0 1-1.786 2.511c-4.054 3.861-8.674 6.774-13.855 8.737-5.18 1.964-10.765 2.944-16.75 2.944-6.566 0-12.729-1.174-18.489-3.523-5.761-2.35-10.782-5.6-15.062-9.751-4.281-4.152-7.661-9.043-10.137-14.676C11.238 104.633 10 98.535 10 91.969V22.551zm91.143 70.48c0-6.758 1.287-13.113 3.862-19.068 2.574-5.953 6.082-11.166 10.524-15.64 4.442-4.474 9.621-8.014 15.544-10.621 5.922-2.608 12.228-3.911 18.924-3.911h.772c2.06 0 3.683.613 4.876 1.836 1.189 1.223 1.785 2.768 1.785 4.633 0 1.869-.644 3.396-1.93 4.587-1.288 1.191-2.865 1.786-4.731 1.786h-.772c-4.892 0-9.511.95-13.855 2.848-4.345 1.9-8.159 4.489-11.441 7.772-3.282 3.283-5.89 7.144-7.821 11.586-1.93 4.441-2.896 9.171-2.896 14.192v37.461c0 1.867-.596 3.412-1.785 4.636-1.193 1.222-2.657 1.833-4.394 1.833-1.803 0-3.365-.611-4.683-1.833-1.32-1.224-1.979-2.769-1.979-4.636V93.031zm68.258-42.674c0-1.866.638-3.427 1.917-4.682 1.277-1.256 2.812-1.884 4.6-1.884 1.854 0 3.368.628 4.552 1.884 1.181 1.255 1.772 2.816 1.772 4.682v80.617c0 1.804-.623 3.332-1.868 4.587-1.246 1.255-2.731 1.882-4.456 1.882-1.788 0-3.323-.627-4.6-1.882-1.279-1.255-1.917-2.783-1.917-4.587V50.357zm-1.158-27.42c0-2.188.74-4.022 2.221-5.503 1.48-1.48 3.313-2.221 5.502-2.221 2.188 0 4.039.741 5.552 2.221 1.511 1.481 2.269 3.315 2.269 5.503 0 2.124-.758 3.944-2.269 5.456-1.513 1.513-3.364 2.269-5.552 2.269-2.189 0-4.022-.756-5.502-2.269-1.481-1.512-2.221-3.332-2.221-5.456zm41.13 68.163c0 4.635.901 9.027 2.703 13.18 1.802 4.151 4.248 7.788 7.338 10.909 3.09 3.123 6.71 5.586 10.862 7.386 4.151 1.803 8.608 2.703 13.371 2.703 4.828 0 9.332-.9 13.517-2.703 4.183-1.8 7.804-4.263 10.862-7.386 3.057-3.121 5.47-6.758 7.242-10.909 1.77-4.153 2.654-8.545 2.654-13.18 0-4.697-.884-9.139-2.654-13.323-1.772-4.183-4.185-7.821-7.242-10.91-3.058-3.09-6.679-5.535-10.862-7.338-4.185-1.801-8.689-2.703-13.517-2.703-4.763 0-9.22.902-13.371 2.703-4.152 1.803-7.772 4.248-10.862 7.338-3.09 3.089-5.536 6.727-7.338 10.91-1.802 4.184-2.703 8.626-2.703 13.323zm-12.841 0c0-6.565 1.238-12.728 3.717-18.489 2.477-5.76 5.857-10.765 10.138-15.013 4.28-4.248 9.269-7.61 14.965-10.089 5.696-2.477 11.793-3.718 18.295-3.718 8.69 0 15.786 1.949 21.289 5.842 5.504 3.895 9.833 9.22 12.986 15.979V16.661c0-1.865.594-3.442 1.786-4.73 1.191-1.287 2.719-1.931 4.586-1.931 1.802 0 3.332.644 4.586 1.931 1.255 1.288 1.883 2.865 1.883 4.73v75.018c-.065 6.372-1.337 12.392-3.812 18.055-2.48 5.665-5.842 10.589-10.09 14.771-4.248 4.187-9.22 7.5-14.917 9.947-5.696 2.445-11.796 3.667-18.297 3.667-6.502 0-12.599-1.239-18.295-3.716-5.696-2.478-10.685-5.841-14.965-10.089-4.281-4.248-7.661-9.221-10.138-14.917-2.479-5.696-3.717-11.795-3.717-18.297zm111.416-40.84c0-1.866.627-3.411 1.882-4.634 1.257-1.223 2.753-1.835 4.49-1.835 1.802 0 3.33.612 4.587 1.835 1.254 1.223 1.882 2.768 1.882 4.634v42.675c0 4.44.804 8.625 2.414 12.551 1.607 3.927 3.812 7.354 6.612 10.283 2.8 2.929 6.115 5.246 9.946 6.951 3.828 1.707 7.964 2.558 12.406 2.558 4.441 0 8.496-.851 12.165-2.558 3.669-1.705 6.807-4.038 9.414-7 2.606-2.96 4.635-6.403 6.081-10.331 1.449-3.924 2.173-8.11 2.173-12.55V50.26c0-1.866.639-3.427 1.917-4.682 1.277-1.255 2.811-1.884 4.6-1.884 1.788 0 3.289.629 4.503 1.884 1.213 1.255 1.821 2.816 1.821 4.682v42.867c0 6.18-1.062 12.005-3.183 17.476-2.12 5.471-5.094 10.252-8.921 14.338-3.824 4.088-8.342 7.306-13.55 9.654-5.206 2.351-10.896 3.523-17.07 3.523-6.301 0-12.137-1.189-17.503-3.572-5.37-2.379-10.031-5.614-13.985-9.702-3.953-4.086-7.056-8.866-9.307-14.338-2.251-5.469-3.374-11.327-3.374-17.571V50.26zm104.177 0c0-1.866.627-3.411 1.882-4.634 1.257-1.223 2.753-1.835 4.49-1.835 1.802 0 3.33.612 4.587 1.835 1.254 1.223 1.882 2.768 1.882 4.634v42.675c0 4.44.804 8.625 2.414 12.551 1.607 3.927 3.812 7.354 6.612 10.283 2.8 2.929 6.115 5.246 9.946 6.951 3.828 1.707 7.964 2.558 12.406 2.558 4.441 0 8.496-.851 12.165-2.558 3.669-1.705 6.807-4.038 9.414-7 2.606-2.96 4.635-6.403 6.081-10.331 1.449-3.924 2.173-8.11 2.173-12.55V50.26c0-1.866.639-3.427 1.917-4.682 1.277-1.255 2.811-1.884 4.6-1.884 1.788 0 3.289.629 4.503 1.884 1.213 1.255 1.821 2.816 1.821 4.682v42.867c0 6.18-1.062 12.005-3.183 17.476-2.12 5.471-5.094 10.252-8.921 14.338-3.824 4.088-8.342 7.306-13.55 9.654-5.206 2.351-10.896 3.523-17.07 3.523-6.301 0-12.137-1.189-17.503-3.572-5.37-2.379-10.031-5.614-13.985-9.702-3.953-4.086-7.056-8.866-9.307-14.338-2.251-5.469-3.374-11.327-3.374-17.571V50.26z"
       fill="#2B2E34"
       id="path93"
       style="fill:#94a7d8;fill-opacity:1" />
    <path
       d="M598.54 115.553c0 1.865-.627 3.41-1.882 4.634-1.257 1.222-2.753 1.835-4.49 1.835-1.802 0-3.33-.613-4.587-1.835-1.255-1.224-1.882-2.769-1.882-4.634V88.878c0-4.44-.805-8.625-2.414-12.551-1.607-3.927-3.812-7.355-6.612-10.283-2.8-2.929-6.115-5.246-9.946-6.951-3.829-1.707-7.964-2.558-12.406-2.558-4.441 0-8.496.851-12.165 2.558-3.669 1.705-6.807 4.038-9.414 7-2.606 2.96-4.635 6.403-6.082 10.331-1.448 3.924-2.172 8.11-2.172 12.55v26.579c0 1.865-.639 3.427-1.917 4.682-1.277 1.255-2.811 1.883-4.6 1.883-1.788 0-3.289-.628-4.503-1.883-1.213-1.255-1.821-2.817-1.821-4.682V88.686c0-6.18 1.061-12.005 3.182-17.476 2.121-5.471 5.095-10.251 8.921-14.338 3.825-4.088 8.342-7.306 13.55-9.654 5.207-2.351 10.897-3.524 17.071-3.524 6.301 0 12.137 1.19 17.503 3.572 5.37 2.38 10.03 5.615 13.985 9.703 3.953 4.086 7.056 8.867 9.307 14.337 2.251 5.47 3.374 11.328 3.374 17.572v26.675z"
       fill="#195DB2"
       id="path95"
       style="fill:#ffffff;fill-opacity:1" />
    <path
       d="M672.577 115.553c0 1.865-.628 3.41-1.883 4.634-1.256 1.222-2.753 1.835-4.489 1.835-1.803 0-3.331-.613-4.587-1.835-1.255-1.224-1.882-2.769-1.882-4.634V88.878c0-4.44-.805-8.625-2.415-12.551-1.606-3.927-3.812-7.355-6.612-10.283-2.8-2.929-6.115-5.246-9.945-6.951-3.829-1.707-7.964-2.558-12.407-2.558-4.441 0-8.496.851-12.165 2.558-3.669 1.705-6.806 4.038-9.413 7-2.606 2.96-4.636 6.403-6.082 10.331-1.448 3.924-2.173 8.11-2.173 12.55v26.579c0 1.865-.638 3.427-1.916 4.682-1.278 1.255-2.812 1.883-4.6 1.883-1.788 0-3.29-.628-4.504-1.883-1.212-1.255-1.821-2.817-1.821-4.682V88.686c0-6.18 1.062-12.005 3.183-17.476 2.121-5.471 5.095-10.251 8.921-14.338 3.825-4.088 8.342-7.306 13.55-9.654 5.207-2.351 10.896-3.524 17.071-3.524 6.301 0 12.136 1.19 17.503 3.572 5.369 2.38 10.03 5.615 13.985 9.703 3.953 4.086 7.055 8.867 9.306 14.337 2.251 5.47 3.375 11.328 3.375 17.572v26.675zm-147.896 15.773a6.676 6.676 0 1 1-13.353.001 6.676 6.676 0 0 1 13.353-.001zm148.117 0a6.677 6.677 0 1 1-13.352 0 6.677 6.677 0 0 1 13.352 0zm-74.16 0a6.677 6.677 0 1 1-13.352 0 6.677 6.677 0 0 1 13.352 0z"
       fill="#195DB2"
       id="path97"
       style="fill:#ffffff;fill-opacity:1" />
    <path
       d="M512.39 153.248c.122-.325.346-.59.672-.794a1.93 1.93 0 0 1 1.038-.306c.57 0 1.028.195 1.374.58.346.388.52.805.52 1.252 0 .246-.062.49-.184.734-.041.041-.133.274-.274.702-.144.428-.398 1.12-.764 2.076-.366.958-.846 2.23-1.436 3.818l-2.228 5.985 2.809 7.635 8.244-21.682a1.59 1.59 0 0 1 .672-.794 1.936 1.936 0 0 1 1.039-.306c.57 0 1.028.195 1.374.58.345.388.519.805.519 1.252 0 .246-.061.49-.183.734-.041.082-.194.499-.458 1.252-.265.754-.754 2.087-1.465 4-.713 1.915-1.691 4.51-2.932 7.787-1.243 3.278-2.84 7.441-4.795 12.49a2.75 2.75 0 0 1-.702 1.099c-.306.285-.743.427-1.313.427-.571 0-1.029-.172-1.375-.519-.345-.345-.58-.681-.702-1.007-.529-1.425-1.017-2.8-1.466-4.123a254.908 254.908 0 0 0-1.282-3.695c-.448 1.14-.906 2.373-1.374 3.695a112.522 112.522 0 0 1-1.557 4.123 2.763 2.763 0 0 1-.703 1.099c-.305.285-.743.427-1.313.427s-1.028-.172-1.374-.519c-.347-.345-.58-.681-.702-1.007-1.71-4.683-3.157-8.642-4.336-11.879a1680.516 1680.516 0 0 0-2.871-7.818 667.4 667.4 0 0 1-1.588-4.306c-.326-.894-.488-1.363-.488-1.404a1.875 1.875 0 0 1-.184-.856c0-.528.153-.965.458-1.312.306-.346.743-.52 1.313-.52.448 0 .834.103 1.161.306.325.204.549.469.671.794l7.94 21.682 2.932-7.696c-.815-2.199-1.507-4.082-2.077-5.649a440.169 440.169 0 0 0-1.405-3.817 106.4 106.4 0 0 1-.794-2.168c-.163-.468-.244-.723-.244-.764a1.888 1.888 0 0 1-.183-.856c0-.528.153-.965.458-1.312.305-.346.743-.52 1.313-.52.448 0 .834.103 1.16.306.326.204.55.469.672.794l3.115 8.855 3.298-8.855zm39.088 11.788a11.019 11.019 0 0 0-1.344-3.542 10.8 10.8 0 0 0-2.413-2.84 11.672 11.672 0 0 0-3.236-1.894 10.424 10.424 0 0 0-3.818-.703c-1.343 0-2.616.235-3.817.703a11.643 11.643 0 0 0-3.236 1.894 10.313 10.313 0 0 0-2.382 2.84 11.418 11.418 0 0 0-1.314 3.542h21.56zm-21.62 3.786a10.317 10.317 0 0 0 1.282 3.634 11.074 11.074 0 0 0 2.412 2.901 11.083 11.083 0 0 0 3.268 1.924 10.66 10.66 0 0 0 3.847.703c1.506 0 2.912-.276 4.214-.826a11.365 11.365 0 0 0 3.482-2.289 1.83 1.83 0 0 1 1.344-.551c.528 0 .977.185 1.343.551.366.365.55.815.55 1.343 0 .53-.184.977-.55 1.345-1.343 1.506-2.861 2.575-4.55 3.205-1.69.631-3.633.946-5.833.946-2.036 0-3.939-.366-5.71-1.099a14.744 14.744 0 0 1-4.672-3.052c-1.344-1.304-2.403-2.851-3.176-4.642-.774-1.791-1.16-3.746-1.16-5.864 0-2.035.376-3.94 1.13-5.71a14.539 14.539 0 0 1 3.115-4.642c1.322-1.323 2.889-2.383 4.702-3.176 1.811-.794 3.776-1.231 5.894-1.313 1.913 0 3.755.388 5.527 1.16a15.103 15.103 0 0 1 4.672 3.176 16.006 16.006 0 0 1 3.237 4.673c.814 1.771 1.222 3.674 1.222 5.711 0 .61-.204 1.078-.612 1.403-.407.327-.835.489-1.282.489h-23.696zm65.347-1.771c-.082-1.588-.418-3.054-1.008-4.397-.591-1.344-1.374-2.504-2.351-3.482a10.659 10.659 0 0 0-3.42-2.29 10.57 10.57 0 0 0-4.153-.824c-1.506 0-2.931.285-4.275.854a11.005 11.005 0 0 0-3.512 2.352 10.948 10.948 0 0 0-2.351 3.512 10.815 10.815 0 0 0-.856 4.275c0 1.507.285 2.922.856 4.244a11.026 11.026 0 0 0 2.351 3.482 10.937 10.937 0 0 0 3.512 2.351c1.344.57 2.769.856 4.275.856a10.62 10.62 0 0 0 4.245-.856 11.056 11.056 0 0 0 3.481-2.351 11.096 11.096 0 0 0 2.352-3.482c.569-1.322.854-2.737.854-4.244zm0-22.414c0-.528.184-.978.55-1.344.366-.366.814-.55 1.344-.55.528 0 .977.184 1.343.55.367.366.55.816.55 1.344v35.239c0 .53-.183.978-.55 1.344a1.83 1.83 0 0 1-1.343.55c-.53 0-.978-.184-1.344-.55a1.829 1.829 0 0 1-.55-1.344v-2.87l-.55.55a14.658 14.658 0 0 1-4.702 3.054 14.878 14.878 0 0 1-5.68 1.098c-2.077 0-4.011-.386-5.802-1.16a14.566 14.566 0 0 1-4.672-3.176 15.346 15.346 0 0 1-3.146-4.672 13.967 13.967 0 0 1-1.16-5.649c0-2.035.397-3.949 1.191-5.741a15.409 15.409 0 0 1 7.878-7.909 13.512 13.512 0 0 1 5.588-1.191c2.281.082 4.357.662 6.231 1.74 1.872 1.08 3.48 2.352 4.824 3.818v-13.131zm20.827 11.421c-1.507 0-2.922.285-4.244.854a10.948 10.948 0 0 0-5.833 5.864 10.836 10.836 0 0 0-.855 4.275c0 1.507.285 2.922.855 4.244a11.026 11.026 0 0 0 5.833 5.833c1.322.571 2.737.856 4.244.856 1.506 0 2.932-.285 4.275-.856a10.948 10.948 0 0 0 5.864-5.833c.569-1.322.854-2.737.854-4.244 0-1.506-.285-2.931-.854-4.275a11.016 11.016 0 0 0-2.352-3.512 11.016 11.016 0 0 0-3.512-2.352 10.849 10.849 0 0 0-4.275-.854zm.122-3.848c1.954 0 3.817.397 5.589 1.191a15.542 15.542 0 0 1 4.672 3.207 15.418 15.418 0 0 1 3.206 4.702c.794 1.792 1.191 3.706 1.191 5.741a13.96 13.96 0 0 1-1.161 5.65 15.347 15.347 0 0 1-3.144 4.671 14.603 14.603 0 0 1-4.673 3.176c-1.792.775-3.726 1.16-5.802 1.16-2.036 0-3.939-.366-5.71-1.098a14.748 14.748 0 0 1-4.673-3.054c-1.344-1.303-2.402-2.85-3.176-4.642-.773-1.791-1.16-3.746-1.16-5.863 0-2.035.376-3.939 1.13-5.711a14.545 14.545 0 0 1 3.115-4.641c1.323-1.323 2.89-2.382 4.703-3.176 1.811-.794 3.776-1.231 5.893-1.313zm38.658 1.771c0-.528.184-.977.55-1.343.367-.367.814-.55 1.345-.55.527 0 .975.183 1.342.55.367.366.549.815.549 1.343v25.896c0 .53-.182.977-.549 1.343a1.83 1.83 0 0 1-1.342.55c-.531 0-.978-.184-1.345-.55a1.826 1.826 0 0 1-.55-1.343v-25.896zm-.61-8.733c0-.692.245-1.283.732-1.771a2.41 2.41 0 0 1 1.773-.733c.691 0 1.282.244 1.769.733.489.488.734 1.079.734 1.771a2.41 2.41 0 0 1-.734 1.771 2.41 2.41 0 0 1-1.769.733 2.414 2.414 0 0 1-1.773-.733 2.416 2.416 0 0 1-.732-1.771zm12.764-.611c0-.528.183-.978.55-1.344.366-.366.813-.55 1.344-.55.528 0 .976.184 1.342.55.368.366.55.816.55 1.344v7.451h4.073c.535 0 .987.183 1.357.55.371.366.555.814.555 1.343 0 .53-.184.977-.555 1.344-.37.367-.822.549-1.357.549h-4.073v24.002c0 .531-.18.978-.541 1.344-.36.366-.801.55-1.321.55-.522 0-.962-.184-1.323-.55a1.838 1.838 0 0 1-.54-1.344v-24.002h-4.073c-.534 0-.987-.182-1.357-.549a1.82 1.82 0 0 1-.556-1.344c0-.529.184-.977.55-1.343.367-.367.814-.55 1.344-.55h4.031v-7.451z"
       fill="#2B2E34"
       id="path99"
       style="fill:#94a7d8;fill-opacity:1" />
  </g>
</svg>
