<?xml version="1.0" encoding="UTF-8" standalone="no"?>
<svg
   xmlns:dc="http://purl.org/dc/elements/1.1/"
   xmlns:cc="http://creativecommons.org/ns#"
   xmlns:rdf="http://www.w3.org/1999/02/22-rdf-syntax-ns#"
   xmlns:svg="http://www.w3.org/2000/svg"
   xmlns="http://www.w3.org/2000/svg"
   xmlns:sodipodi="http://sodipodi.sourceforge.net/DTD/sodipodi-0.dtd"
   xmlns:inkscape="http://www.inkscape.org/namespaces/inkscape"
   style="isolation:isolate"
   viewBox="0 0 96 96"
   width="128"
   height="128"
   version="1.1"
   id="svg103"
   sodipodi:docname="triduum-m-original-favicon.svg"
   inkscape:version="0.92.4 (unknown)"
   inkscape:export-filename="/opt/pymis/reps/triduum-front/src/assets/images/triduum/triduum-m-original.svg.png"
   inkscape:export-xdpi="96.300003"
   inkscape:export-ydpi="96.300003">
  <metadata
     id="metadata107">
    <rdf:RDF>
      <cc:Work
         rdf:about="">
        <dc:format>image/svg+xml</dc:format>
        <dc:type
           rdf:resource="http://purl.org/dc/dcmitype/StillImage" />
        <dc:title></dc:title>
      </cc:Work>
    </rdf:RDF>
  </metadata>
  <sodipodi:namedview
     pagecolor="#ffffff"
     bordercolor="#666666"
     borderopacity="1"
     objecttolerance="10"
     gridtolerance="10"
     guidetolerance="10"
     inkscape:pageopacity="0"
     inkscape:pageshadow="2"
     inkscape:window-width="1327"
     inkscape:window-height="713"
     id="namedview105"
     showgrid="false"
     inkscape:zoom="3.689924"
     inkscape:cx="94.79647"
     inkscape:cy="67.026086"
     inkscape:window-x="1405"
     inkscape:window-y="27"
     inkscape:window-maximized="1"
     inkscape:current-layer="g4638"
     fit-margin-right="-0.4" />
  <defs
     id="defs91">
    <clipPath
       id="a">
      <path
         d="M 0,0 H 687 V 192 H 0 Z"
         id="path88"
         inkscape:connector-curvature="0" />
    </clipPath>
  </defs>
  <g
     clip-path="url(#a)"
     id="g101"
     transform="translate(-441.47251,-51.283632)">
    <g
       id="g4638"
       transform="matrix(1.4682656,0,0,1.4735672,-305.29231,-59.717236)">
      <path
         style="fill:#195db2;fill-opacity:1;stroke-width:0.39839572"
         id="path95"
         d="m 543.67815,116.32557 c 0,0.74094 -0.2505,1.35474 -0.75188,1.84101 -0.50217,0.48549 -1.09985,0.72902 -1.79378,0.72902 -0.71991,0 -1.33036,-0.24353 -1.83255,-0.72902 -0.50139,-0.48627 -0.75188,-1.10007 -0.75188,-1.84101 v -10.59759 c 0,-1.76396 -0.3216,-3.42661 -0.96441,-4.98634 -0.64201,-1.560149 -1.52293,-2.922031 -2.64155,-4.085291 -1.11862,-1.163652 -2.44298,-2.084163 -3.97351,-2.761536 -1.52972,-0.678167 -3.18169,-1.016258 -4.95631,-1.016258 -1.77421,0 -3.39421,0.338091 -4.86001,1.016258 -1.4658,0.677373 -2.71945,1.604241 -3.76098,2.781003 -1.04111,1.175968 -1.85172,2.543815 -2.4298,4.104354 -0.57848,1.55895 -0.86775,3.22199 -0.86775,4.98594 v 10.55946 c 0,0.74094 -0.25527,1.36151 -0.76585,1.86009 -0.51016,0.49861 -1.12301,0.7481 -1.83774,0.7481 -0.71432,0 -1.31398,-0.24949 -1.79899,-0.7481 -0.48458,-0.49858 -0.72749,-1.11915 -0.72749,-1.86009 v -10.67389 c 0,-2.45521 0.42388,-4.76941 1.27123,-6.942955 0.84736,-2.173549 2.0355,-4.072576 3.56402,-5.696285 1.52812,-1.624105 3.3327,-2.902572 5.41333,-3.835399 2.08025,-0.93402 4.35345,-1.400038 6.82002,-1.400038 2.5173,0 4.84883,0.472772 6.99259,1.419107 2.14536,0.945542 4.00707,2.230761 5.58712,3.854867 1.57926,1.623311 2.81894,3.522736 3.71824,5.695889 0.89929,2.173144 1.34793,4.500454 1.34793,6.981114 z"
         inkscape:connector-curvature="0" />
      <path
         style="fill:#195db2;fill-opacity:1;stroke-width:0.39839572"
         id="path97"
         d="m 573.53343,116.46351 c 0,0.74094 -0.2509,1.35474 -0.75229,1.84101 -0.50178,0.48549 -1.09983,0.72902 -1.79338,0.72902 -0.72032,0 -1.33077,-0.24353 -1.83255,-0.72902 -0.50138,-0.48627 -0.75188,-1.10007 -0.75188,-1.84101 v -10.59759 c 0,-1.76396 -0.3216,-3.42661 -0.96481,-4.98634 -0.6416,-1.560154 -1.52292,-2.922036 -2.64154,-4.085296 -1.11864,-1.163652 -2.44301,-2.084163 -3.97312,-2.761536 -1.52972,-0.678167 -3.18169,-1.016258 -4.9567,-1.016258 -1.77421,0 -3.39422,0.338091 -4.86003,1.016258 -1.46579,0.677373 -2.71904,1.604241 -3.76057,2.781003 -1.04111,1.175968 -1.85211,2.543815 -2.4298,4.104359 -0.57849,1.55895 -0.86814,3.22199 -0.86814,4.98594 v 10.55946 c 0,0.74094 -0.25488,1.36151 -0.76545,1.86009 -0.51058,0.49861 -1.12343,0.7481 -1.83775,0.7481 -0.71431,0 -1.31436,-0.24949 -1.79938,-0.7481 -0.48421,-0.49858 -0.72749,-1.11915 -0.72749,-1.86009 v -10.67389 c 0,-2.45521 0.42427,-4.76941 1.27162,-6.94296 0.84736,-2.173549 2.0355,-4.072576 3.56402,-5.696285 1.52813,-1.624105 3.3327,-2.902572 5.41333,-3.835399 2.08025,-0.93402 4.35306,-1.400038 6.82002,-1.400038 2.5173,0 4.84843,0.472772 6.9926,1.419107 2.14495,0.945542 4.00706,2.230761 5.58713,3.854867 1.57924,1.623311 2.81852,3.522736 3.7178,5.695889 0.8993,2.173149 1.34836,4.500459 1.34836,6.981119 z m -59.0857,6.2664 a 2.6673209,2.6524832 0 1 1 -5.33464,3.9e-4 2.6673209,2.6524832 0 0 1 5.33464,-3.9e-4 z m 59.17398,0 a 2.6675178,2.6526791 0 1 1 -5.33423,0 2.6675178,2.6526791 0 0 1 5.33423,0 z m -29.62754,0 a 2.6675178,2.6526791 0 1 1 -5.33423,0 2.6675178,2.6526791 0 0 1 5.33423,0 z"
         inkscape:connector-curvature="0" />
    </g>
  </g>
</svg>
